<?xml version="1.0" encoding="utf-8"?>
<!-- Generator: Adobe Illustrator 27.3.1, SVG Export Plug-In . SVG Version: 6.00 Build 0)  -->
<svg version="1.1" id="Livello_1" xmlns="http://www.w3.org/2000/svg" xmlns:xlink="http://www.w3.org/1999/xlink" x="0px" y="0px"
	 viewBox="0 0 2287.5 479.5" style="enable-background:new 0 0 2287.5 479.5;" xml:space="preserve">
<style type="text/css">
	.st0{fill:#FFFFFF;}
	.st1{fill:#FFFFFF;}
	.st2{fill:#B09089;}
</style>
<g>
	<g>
		<g>
			<path class="st0" d="M272.5,42.5c0,23.5-19,42.5-42.5,42.5c-23.5,0-42.5-19-42.5-42.5c0-23.5,19-42.5,42.5-42.5
				C253.4,0,272.5,19,272.5,42.5"/>
			<path class="st0" d="M441.7,141.6c0,23.3-18.9,42.2-42.2,42.2s-42.2-18.9-42.2-42.2c0-23.3,18.9-42.2,42.2-42.2
				S441.7,118.3,441.7,141.6"/>
			<path class="st1" d="M443,338.9c0,23.2-18.8,41.9-41.9,41.9c-23.2,0-41.9-18.8-41.9-41.9c0-23.2,18.8-41.9,41.9-41.9
				C424.2,297,443,315.7,443,338.9"/>
			<path class="st2" d="M278.6,430.9c0,26.9-21.8,48.7-48.7,48.7c-26.9,0-48.7-21.8-48.7-48.7s21.8-48.7,48.7-48.7
				C256.8,382.2,278.6,404,278.6,430.9"/>
			<path class="st1" d="M109.8,353c0,23.3-18.9,42.2-42.2,42.2c-23.3,0-42.2-18.9-42.2-42.2c0-23.3,18.9-42.2,42.2-42.2
				C90.9,310.8,109.8,329.7,109.8,353"/>
			<path class="st2" d="M112.8,141.4c0,31.1-25.2,56.4-56.4,56.4C25.2,197.8,0,172.6,0,141.4C0,110.3,25.2,85,56.4,85
				C87.5,85,112.8,110.3,112.8,141.4"/>
			<path class="st0" d="M286.6,240.5c0,31.3-25.4,56.7-56.7,56.7c-31.3,0-56.7-25.4-56.7-56.7s25.4-56.7,56.7-56.7
				C261.2,183.8,286.6,209.2,286.6,240.5"/>
			<path class="st2" d="M179.4,77.4l-5-8.3c-0.2-0.4-0.7-0.5-1.1-0.3l-48.4,28c-0.4,0.2-0.5,0.7-0.3,1.1l5,8.3
				c0.2,0.4,0.7,0.5,1.1,0.3l48.4-28C179.5,78.2,179.7,77.8,179.4,77.4"/>
			<path class="st2" d="M332.7,108.3l5.5-8c0.3-0.4,0.1-0.9-0.2-1.1l-48.4-28.3c-0.4-0.2-0.8-0.1-1,0.2l-5.5,8
				c-0.3,0.4-0.1,0.9,0.2,1.1l48.4,28.3C332.1,108.7,332.5,108.6,332.7,108.3"/>
			<path class="st2" d="M122.5,172.3l-5.5,8c-0.3,0.4-0.1,0.9,0.3,1.1l48.6,28.1c0.3,0.2,0.8,0.1,1-0.2l5.5-8
				c0.3-0.4,0.1-0.9-0.2-1.1L123.6,172C123.2,171.8,122.8,171.9,122.5,172.3"/>
			<path class="st2" d="M340.6,365l-49.4,26.6c-0.4,0.2-0.5,0.7-0.3,1.1l5.3,8.2c0.2,0.3,0.7,0.4,1,0.3l49.4-26.6
				c0.4-0.2,0.5-0.7,0.3-1.1l-5.3-8.2C341.4,364.9,341,364.8,340.6,365"/>
			<path class="st2" d="M298.5,273.9l-5.5,8c-0.3,0.4-0.1,0.9,0.3,1.1l48.6,28.1c0.3,0.2,0.8,0.1,1-0.2l5.5-8
				c0.3-0.4,0.1-0.9-0.2-1.1l-48.6-28.1C299.1,273.5,298.7,273.6,298.5,273.9"/>
			<path class="st2" d="M115.5,312l5,8.3c0.2,0.4,0.7,0.5,1.1,0.3l47.2-30.1c0.4-0.2,0.5-0.7,0.2-1.1l-5-8.3
				c-0.2-0.4-0.7-0.5-1.1-0.3l-47.2,30.1C115.4,311.1,115.3,311.6,115.5,312"/>
			<g>
				<path class="st2" d="M541.3,242.2V49.7H568v169.1h126.2l-4.6,23.5H541.3z"/>
				<path class="st2" d="M833.4,242.2v-21.8c-8.5,8.8-17.8,15.2-27.9,19.3c-10.2,4-21.9,6.1-35.2,6.1c-18.2,0-32.1-3.7-41.8-11.1
					c-9.7-7.4-14.6-17.9-14.6-31.5c0-14.9,6.4-26,19.3-33.3c12.9-7.3,33-11.3,60.5-12l39.1-1.1v-4.9c0-11.5-3.4-20-10.1-25.5
					c-6.7-5.5-17.2-8.2-31.4-8.2c-13.3,0-23.7,1.6-31.1,4.9c-7.5,3.2-12.4,8.4-15,15.4l-23.2-3c5.6-24.6,29-36.9,70.4-36.9
					c21.9,0,38.2,4.4,48.9,13.2c10.7,8.8,16,22.3,16,40.4v90.1H833.4z M832.8,174.8l-38.8,1.1c-18.7,0.5-32.4,2.8-41,6.7
					c-8.6,4-12.9,10.1-12.9,18.3c0,7.9,3.1,13.9,9.4,18.1c6.3,4.1,15.4,6.2,27.2,6.2c8.4,0,16.5-1.3,24.1-3.9
					c7.6-2.6,14.2-6.2,19.8-10.9c8.1-6.6,12.1-14.8,12.1-24.5V174.8z"/>
				<path class="st2" d="M900.5,242.2V49.7h25.3v78.2c6.1-9.2,14.6-16.4,25.6-21.6c11-5.2,22.9-7.8,35.9-7.8
					c13.8,0,26.1,2.9,36.8,8.8c10.7,5.8,19.1,14.3,25.1,25.3c6,11.1,9,24,9,39c0,14.4-3,27.2-8.9,38.6
					c-5.9,11.3-14.5,20.2-25.6,26.7c-11.1,6.5-24.2,9.7-39.1,9.7c-26.1,0-45.8-9.1-59.1-27.2v22.9H900.5z M925.6,176.4
					c0,13.7,4.7,25.3,14,35.1c4.5,4.7,10,8.2,16.6,10.7c6.6,2.4,13.7,3.6,21.4,3.6c17.6,0,31-4.6,40.2-13.8
					c9.2-9.2,13.8-22.6,13.8-40.2c0-16.5-4.6-29.4-13.8-38.7c-9.2-9.3-21.9-13.9-38.3-13.9c-7.7,0-15.1,1.4-22.1,4.2
					c-7,2.8-13,6.7-18.1,11.7c-4.3,4.3-7.7,9.3-10.1,15.1c-2.4,5.8-3.6,11.6-3.6,17.5V176.4z"/>
				<path class="st0" d="M1261.5,242.2l-25.3-53.1h-105.4l-25.1,53.1h-28.6l93.3-192.5h27.5l93.3,192.5H1261.5z M1183.6,78.3
					L1141,167h85.2L1183.6,78.3z"/>
				<path class="st0" d="M1436.8,242.2V157c0-12.9-3.1-22.3-9.3-28.2c-6.2-5.8-16.2-8.8-30.1-8.8c-7.4,0-14.7,1.4-22,4.2
					c-7.3,2.8-13.5,6.7-18.7,11.7c-4.5,4.1-7.9,8.8-10.2,13.9c-2.3,5.1-3.5,10.5-3.5,16v76.3h-25.3V102.8h25.1v25.9
					c15.3-20.1,35.7-30.2,61.2-30.2c19.2,0,33.7,4.5,43.5,13.6c9.8,9.1,14.7,22.5,14.7,40.3v89.8H1436.8z"/>
				<path class="st0" d="M1615.3,242.2v-21.8c-8.5,8.8-17.8,15.2-27.9,19.3c-10.2,4-21.9,6.1-35.2,6.1c-18.2,0-32.1-3.7-41.8-11.1
					c-9.7-7.4-14.6-17.9-14.6-31.5c0-14.9,6.4-26,19.3-33.3c12.8-7.3,33-11.3,60.5-12l39.1-1.1v-4.9c0-11.5-3.4-20-10.1-25.5
					c-6.7-5.5-17.2-8.2-31.4-8.2c-13.3,0-23.7,1.6-31.1,4.9c-7.5,3.2-12.4,8.4-15,15.4l-23.2-3c5.6-24.6,29-36.9,70.4-36.9
					c21.9,0,38.2,4.4,48.9,13.2c10.7,8.8,16,22.3,16,40.4v90.1H1615.3z M1614.8,174.8l-38.8,1.1c-18.7,0.5-32.4,2.8-41,6.7
					c-8.6,4-12.9,10.1-12.9,18.3c0,7.9,3.1,13.9,9.4,18.1c6.3,4.1,15.4,6.2,27.2,6.2c8.4,0,16.5-1.3,24.1-3.9
					c7.6-2.6,14.2-6.2,19.8-10.9c8.1-6.6,12.1-14.8,12.1-24.5V174.8z"/>
				<path class="st0" d="M1682.5,242.2V49.7h25.3v192.5H1682.5z"/>
				<path class="st0" d="M1802.7,238.7l-70.1-135.9h29.7l54.2,109.5l49.3-109.5h28.3l-73.9,155c-7,14.7-14.3,25-22,30.9
					c-7.6,5.8-17.5,8.8-29.5,8.8c-4.9,0-9.2-0.4-12.9-1.2c-3.8-0.8-7.9-2.1-12.4-3.9l4.6-19.4c5.9,2.2,11.9,3.2,17.8,3.2
					c7,0,12.9-1.8,17.7-5.3c4.8-3.5,8.9-9,12.3-16.6L1802.7,238.7z"/>
				<path class="st0" d="M2021.4,139.5c-2.7-7.2-7.8-12.5-15.2-16c-7.5-3.5-17.7-5.3-30.6-5.3c-12.9,0-23.2,1.8-30.7,5.4
					c-7.5,3.6-11.3,8.5-11.3,14.6c0,6.1,2.6,10.7,8,13.8c5.3,3.1,15.2,5.7,29.8,7.8l17.8,2.7c15.8,2.3,27.9,5.2,36.3,8.5
					c8.4,3.3,14.3,7.6,17.8,12.8c3.5,5.2,5.3,12,5.3,20.2c0,28.4-23,42.6-69,42.6c-22.1,0-39.3-3.7-51.5-11.2
					c-12.2-7.5-19.7-18.7-22.4-33.8h24c5.2,16.7,21.7,25.1,49.3,25.1c14.6,0,25.8-1.9,33.8-5.7c8-3.8,12-9.2,12-16.2
					c0-6.1-2.9-10.7-8.6-13.8c-5.8-3.1-16.4-5.8-32.1-8.1l-16.4-2.4c-15.1-2.3-26.7-5.2-34.9-8.6c-8.2-3.4-14-7.8-17.4-13.1
					c-3.4-5.3-5.1-12-5.1-20.1c0-12.6,5.8-22.4,17.4-29.5c11.6-7.1,27.6-10.7,48.1-10.7c20.1,0,35.6,3,46.5,8.9
					c10.9,5.9,18.4,15.6,22.5,29.1L2021.4,139.5z"/>
				<path class="st0" d="M2083.7,77.2V49.7h27v27.5H2083.7z M2084.5,242.2V102.8h25.3v139.4H2084.5z"/>
				<path class="st0" d="M2260.6,139.5c-2.7-7.2-7.8-12.5-15.2-16c-7.5-3.5-17.7-5.3-30.6-5.3c-12.9,0-23.2,1.8-30.7,5.4
					c-7.5,3.6-11.3,8.5-11.3,14.6c0,6.1,2.6,10.7,8,13.8c5.3,3.1,15.2,5.7,29.8,7.8l17.8,2.7c15.8,2.3,27.9,5.2,36.3,8.5
					c8.4,3.3,14.3,7.6,17.8,12.8c3.5,5.2,5.3,12,5.3,20.2c0,28.4-23,42.6-69,42.6c-22.1,0-39.3-3.7-51.5-11.2
					c-12.2-7.5-19.7-18.7-22.4-33.8h24c5.2,16.7,21.7,25.1,49.3,25.1c14.6,0,25.8-1.9,33.8-5.7c8-3.8,12-9.2,12-16.2
					c0-6.1-2.9-10.7-8.6-13.8c-5.8-3.1-16.4-5.8-32.1-8.1l-16.4-2.4c-15.1-2.3-26.7-5.2-34.9-8.6c-8.2-3.4-14-7.8-17.4-13.1
					c-3.4-5.3-5.1-12-5.1-20.1c0-12.6,5.8-22.4,17.4-29.5c11.6-7.1,27.6-10.7,48.1-10.7c20.1,0,35.6,3,46.5,8.9
					c10.9,5.9,18.4,15.6,22.5,29.1L2260.6,139.5z"/>
			</g>
		</g>
	</g>
	<g>
		<path class="st2" d="M540.4,315.4h43.5v9.5h-32.4v17.4H582v9.6h-30.6v19.3h34.2l-1.3,9.5h-44V315.4z"/>
		<path class="st2" d="M596.2,315.4h10.3l30,47.3v-47.3h10.8v65.4H637l-30.1-47.1v47.1h-10.7V315.4z"/>
		<path class="st2" d="M667.6,315.4l18,50.4l18.2-50.4h11.8l-24.8,65.4h-10.6l-24.9-65.4H667.6z"/>
		<path class="st2" d="M723.7,315.4h11.1v65.4h-11.1V315.4z"/>
		<path class="st2" d="M770.9,315.4c4.9,0,9,0.6,12.2,1.7c3.2,1.2,5.7,2.7,7.6,4.5c1.9,1.9,3.2,3.9,3.9,6.2c0.7,2.3,1.1,4.5,1.1,6.7
			c0,4.3-0.8,7.8-2.5,10.7c-1.7,2.9-4.4,5.2-8.1,7l13.6,28.6h-12.1l-11.7-26c-0.5,0.1-1.1,0.1-1.7,0.1c-0.6,0-1.3,0-1.9,0h-11.7
			v25.8h-10.9v-65.4H770.9z M771.8,345.6c2.5,0,4.6-0.3,6.2-0.8c1.6-0.5,2.9-1.3,3.9-2.2c0.9-0.9,1.6-2.1,2-3.4
			c0.4-1.3,0.6-2.8,0.6-4.5c0-1.5-0.2-2.9-0.7-4.2c-0.5-1.3-1.2-2.3-2.3-3.2c-1.1-0.9-2.5-1.6-4.3-2.1c-1.8-0.5-4-0.7-6.6-0.7h-11.2
			v21.1H771.8z"/>
		<path class="st2" d="M835,382.5c-4.7,0-8.9-0.8-12.7-2.3c-3.8-1.6-7-3.8-9.7-6.7c-2.7-2.9-4.7-6.5-6.2-10.8
			c-1.4-4.2-2.2-9.1-2.2-14.4c0-5.4,0.7-10.2,2.2-14.5c1.5-4.3,3.5-7.9,6.2-10.9c2.7-3,5.9-5.2,9.7-6.8c3.8-1.6,8-2.3,12.5-2.3
			c4.6,0,8.9,0.8,12.6,2.3c3.8,1.6,7,3.8,9.6,6.7c2.6,2.9,4.7,6.5,6.1,10.8c1.4,4.2,2.2,9.1,2.2,14.4c0,5.4-0.7,10.3-2.1,14.5
			c-1.4,4.2-3.4,7.8-6,10.8c-2.6,3-5.8,5.2-9.6,6.8C844.1,381.7,839.8,382.5,835,382.5z M835,372.9c6.3,0,11.1-2.2,14.3-6.6
			c3.2-4.4,4.9-10.5,4.9-18.2c0-3.8-0.4-7.3-1.2-10.4c-0.8-3.1-2-5.6-3.6-7.8c-1.6-2.1-3.6-3.8-6-4.9c-2.4-1.2-5.2-1.7-8.3-1.7
			c-3.2,0-6,0.6-8.3,1.7c-2.4,1.2-4.4,2.8-6,4.9c-1.6,2.1-2.8,4.7-3.6,7.8c-0.8,3.1-1.2,6.5-1.2,10.4c0,7.7,1.6,13.8,4.8,18.2
			S828.6,372.9,835,372.9z"/>
		<path class="st2" d="M877.3,315.4h10.3l30,47.3v-47.3h10.8v65.4h-10.3L888,333.7v47.1h-10.7V315.4z"/>
		<path class="st2" d="M942.3,315.4h13.5l18.6,52l19.1-52h13v65.4h-10.2v-47.5l-18,47.5h-8.8l-17.3-47.5v47.5h-10V315.4z"/>
		<path class="st2" d="M1020.4,315.4h43.5v9.5h-32.4v17.4h30.6v9.6h-30.6v19.3h34.2l-1.3,9.5h-44V315.4z"/>
		<path class="st2" d="M1076.2,315.4h10.3l30,47.3v-47.3h10.8v65.4h-10.3l-30.1-47.1v47.1h-10.7V315.4z"/>
		<path class="st2" d="M1156.7,325H1136v-9.6h52.4v9.6h-20.6v55.8h-11.1V325z"/>
		<path class="st2" d="M1207.4,315.4h11l24.9,65.4h-11.8l-6.1-16.7H1200l-6,16.7h-11.5L1207.4,315.4z M1222.3,354.9l-9.7-26.9
			l-9.6,26.9H1222.3z"/>
		<path class="st2" d="M1262.4,315.4v55.8h32.4l-1.4,9.6h-42.1v-65.4H1262.4z"/>
		<path class="st2" d="M1331.4,360.9c0.5,4.3,2,7.4,4.6,9.3c2.6,2,6.5,2.9,11.6,2.9c2.5,0,4.6-0.3,6.3-0.8c1.7-0.5,3.1-1.3,4.1-2.2
			c1-0.9,1.8-2,2.2-3.3c0.4-1.3,0.6-2.6,0.6-4c0-1-0.2-2.1-0.5-3.1c-0.3-1-0.9-1.9-1.6-2.8c-0.8-0.9-1.9-1.6-3.2-2.2
			c-1.3-0.6-3.1-1.1-5.1-1.5l-8.3-1.6c-3.3-0.6-6.2-1.4-8.8-2.3c-2.6-0.9-4.7-2.1-6.5-3.6c-1.7-1.5-3.1-3.3-3.9-5.5
			c-0.9-2.2-1.3-4.8-1.3-7.9c0-3.1,0.6-5.8,1.9-8.2c1.3-2.3,3-4.3,5.2-5.8s4.8-2.7,7.8-3.5c3-0.8,6.3-1.1,9.8-1.1
			c4.5,0,8.3,0.5,11.4,1.6c3.1,1,5.5,2.4,7.4,4.1c1.9,1.7,3.3,3.6,4.3,5.8c1,2.2,1.6,4.5,2,6.9l-10.4,1.6c-0.9-3.7-2.3-6.4-4.4-8.2
			c-2.1-1.8-5.5-2.7-10-2.7c-2.6,0-4.8,0.2-6.5,0.7s-3.1,1.1-4.2,1.9c-1.1,0.8-1.8,1.8-2.3,2.8c-0.5,1.1-0.7,2.2-0.7,3.3
			c0,2.9,0.8,5,2.3,6.4c1.6,1.4,4.3,2.5,8.2,3.3l9.1,1.7c6.9,1.3,12,3.5,15.2,6.5c3.2,3.1,4.9,7.5,4.9,13.3c0,2.7-0.5,5.3-1.5,7.6
			c-1,2.4-2.5,4.4-4.6,6.1c-2.1,1.7-4.7,3.1-7.7,4.1c-3.1,1-6.7,1.5-10.8,1.5c-8.4,0-14.9-1.8-19.7-5.3c-4.8-3.5-7.4-9-7.9-16.4
			H1331.4z"/>
		<path class="st2" d="M1437,358.7c-0.4,3.4-1.2,6.6-2.5,9.4c-1.3,2.9-3.1,5.4-5.3,7.5c-2.3,2.1-5,3.8-8.2,5
			c-3.2,1.2-7,1.8-11.3,1.8c-4.7,0-8.9-0.8-12.6-2.4c-3.7-1.6-6.8-3.9-9.3-6.8c-2.5-3-4.5-6.6-5.8-10.8c-1.3-4.2-2-9-2-14.2
			c0-5.4,0.7-10.2,2.2-14.5c1.4-4.3,3.5-7.9,6.1-10.9c2.6-3,5.8-5.2,9.4-6.8s7.7-2.3,12.1-2.3c4.1,0,7.6,0.5,10.6,1.6
			c3,1,5.5,2.5,7.6,4.4c2.1,1.9,3.8,4.2,5,6.9c1.3,2.7,2.2,5.7,2.8,9l-10.9,1.6c-0.5-2.2-1.1-4.2-1.8-5.9c-0.7-1.7-1.7-3.2-2.9-4.4
			c-1.2-1.2-2.6-2.1-4.4-2.7c-1.7-0.6-3.8-1-6.1-1c-2.9,0-5.5,0.6-7.8,1.7c-2.3,1.2-4.2,2.8-5.7,5c-1.6,2.2-2.7,4.8-3.5,7.8
			c-0.8,3.1-1.2,6.5-1.2,10.3c0,3.8,0.4,7.3,1.2,10.4c0.8,3.1,2,5.7,3.6,7.8c1.6,2.2,3.5,3.8,5.7,4.9c2.2,1.1,4.8,1.7,7.6,1.7
			c2.6,0,4.7-0.3,6.5-1c1.8-0.7,3.3-1.6,4.5-2.8c1.2-1.2,2.2-2.7,2.9-4.4c0.7-1.7,1.2-3.7,1.5-5.9H1437z"/>
		<path class="st2" d="M1447.5,315.4h11.1v65.4h-11.1V315.4z"/>
		<path class="st2" d="M1472.4,315.4h43.5v9.5h-32.4v17.4h30.6v9.6h-30.6v19.3h34.2l-1.3,9.5h-44V315.4z"/>
		<path class="st2" d="M1528.2,315.4h10.3l30,47.3v-47.3h10.8v65.4H1569l-30.1-47.1v47.1h-10.7V315.4z"/>
		<path class="st2" d="M1648,358.7c-0.4,3.4-1.2,6.6-2.5,9.4c-1.3,2.9-3.1,5.4-5.3,7.5c-2.3,2.1-5,3.8-8.2,5
			c-3.2,1.2-7,1.8-11.3,1.8c-4.7,0-8.9-0.8-12.6-2.4c-3.7-1.6-6.8-3.9-9.3-6.8c-2.5-3-4.5-6.6-5.8-10.8c-1.3-4.2-2-9-2-14.2
			c0-5.4,0.7-10.2,2.2-14.5c1.4-4.3,3.5-7.9,6.1-10.9c2.6-3,5.8-5.2,9.4-6.8s7.7-2.3,12.1-2.3c4.1,0,7.6,0.5,10.6,1.6
			c3,1,5.5,2.5,7.6,4.4c2.1,1.9,3.8,4.2,5,6.9c1.3,2.7,2.2,5.7,2.8,9l-10.9,1.6c-0.5-2.2-1.1-4.2-1.8-5.9c-0.7-1.7-1.7-3.2-2.9-4.4
			c-1.2-1.2-2.6-2.1-4.4-2.7c-1.7-0.6-3.8-1-6.1-1c-2.9,0-5.5,0.6-7.8,1.7c-2.3,1.2-4.2,2.8-5.7,5c-1.6,2.2-2.7,4.8-3.5,7.8
			c-0.8,3.1-1.2,6.5-1.2,10.3c0,3.8,0.4,7.3,1.2,10.4c0.8,3.1,2,5.7,3.6,7.8c1.6,2.2,3.5,3.8,5.7,4.9c2.2,1.1,4.8,1.7,7.6,1.7
			c2.6,0,4.7-0.3,6.5-1c1.8-0.7,3.3-1.6,4.5-2.8c1.2-1.2,2.2-2.7,2.9-4.4c0.7-1.7,1.2-3.7,1.5-5.9H1648z"/>
		<path class="st2" d="M1658.4,315.4h43.5v9.5h-32.4v17.4h30.6v9.6h-30.6v19.3h34.2l-1.3,9.5h-44V315.4z"/>
	</g>
</g>
</svg>
